<?xml version="1.0" encoding="UTF-8"?>
<svg id="_レイヤー_2" data-name="レイヤー 2" xmlns="http://www.w3.org/2000/svg" viewBox="0 0 1214.23 282.71">
  <defs>
    <style>
      .cls-1 {
        fill: #fff;
      }
    </style>
  </defs>
  <g id="_レイヤー_1-2" data-name="レイヤー 1">
    <g>
      <path class="cls-1" d="M415.95,205.71c-18.15-4.17-21.22-7.98-21.22-14.95,0-10.44,9.65-12.64,17.75-12.64,12,0,19.46,5.43,20.45,14.9l.1.98h13.76l-.12-1.2c-1.73-17.04-14.56-27.22-34.32-27.22s-31.23,9.99-31.23,25.45c0,17.48,12.66,23.77,31.68,27.84,19.18,4.13,22.56,8.63,22.56,16.56,0,9.31-7.5,14.65-20.58,14.65s-22.49-7.2-23-18.33l-.05-1.04h-14.02l.05,1.14c.73,17.84,16.29,30.79,37.02,30.79s34.06-10.42,34.06-27.2c0-18.81-11.07-24.77-32.88-29.73Z"/>
      <path class="cls-1" d="M523.39,225.89c0,15.83-7.63,24.21-22.05,24.21s-22.19-8.6-22.19-24.21v-58.55h-14.03v58.55c0,22.33,14.21,36.75,36.21,36.75s36.08-14.42,36.08-36.75v-58.55h-14.03v58.55Z"/>
      <path class="cls-1" d="M603.99,235.62c-.7,1.97-1.33,4.32-1.83,6.35-.49-2.03-1.11-4.4-1.76-6.34l-23.54-68.29h-18.83v93.69h13.22v-65.41c0-1.3-.04-2.92-.11-4.58.33,1.04.66,2.04.95,2.92l23.01,66.34.25.73h13.13l23.27-67.1c.29-.89.6-1.89.92-2.9-.06,1.69-.09,3.32-.09,4.59v65.41h13.49v-93.69h-18.69l-23.39,68.29Z"/>
      <path class="cls-1" d="M715.37,235.62c-.7,1.97-1.33,4.33-1.83,6.35-.5-2.03-1.11-4.4-1.76-6.35l-23.53-68.29h-18.83v93.69h13.22v-65.41c0-1.29-.04-2.91-.11-4.57.33,1.03.65,2.03.95,2.91l23.01,66.34.25.73h13.13l23.27-67.1c.29-.9.6-1.89.92-2.91-.06,1.69-.09,3.33-.09,4.59v65.41h13.49v-93.69h-18.69l-23.39,68.29Z"/>
      <rect class="cls-1" x="781.98" y="167.33" width="14.02" height="93.69"/>
      <polygon class="cls-1" points="813.13 180.15 840.72 180.15 840.72 261.02 854.74 261.02 854.74 180.15 882.33 180.15 882.33 167.33 813.13 167.33 813.13 180.15"/>
      <path class="cls-1" d="M949.55,227.1c17.78-10.14,28.68-17.23,28.68-34.59,0-16.11-12.23-26.93-30.43-26.93s-31.22,12.76-31.37,31.76v1.1s13.33,0,13.33,0l.02-1.07c.28-12.24,6.85-19.25,18.02-19.25,13.22,0,16,7.82,16,14.39,0,8.86-3.07,13.73-20.3,23.41-15.18,8.58-28.81,17.98-28.81,38.63v6.47h62.74v-12.81h-48.72c1.23-8.44,8.11-13.82,20.85-21.11Z"/>
      <path class="cls-1" d="M1026.7,165.59c-17.83,0-36.89,12.66-36.89,48.19,0,29.68,14.48,48.86,36.89,48.86s36.75-19.18,36.75-48.86c0-35.53-18.98-48.19-36.75-48.19ZM1049.02,213.77c0,23.42-7.93,36.32-22.32,36.32s-22.46-12.9-22.46-36.32,7.98-35.65,22.46-35.65c18.45,0,22.32,19.38,22.32,35.65Z"/>
      <path class="cls-1" d="M1109.74,227.1c17.78-10.14,28.68-17.23,28.68-34.59,0-16.11-12.23-26.93-30.43-26.93s-31.22,12.76-31.37,31.76v1.1s13.33,0,13.33,0l.02-1.07c.28-12.24,6.85-19.25,18.02-19.25,13.22,0,16,7.82,16,14.39,0,8.86-3.07,13.73-20.3,23.41-15.18,8.58-28.81,17.98-28.81,38.63v6.47h62.74v-12.81h-48.72c1.23-8.44,8.11-13.82,20.85-21.11Z"/>
      <path class="cls-1" d="M1185.02,197.88c-6.19,0-12.07,2.07-16.57,5.76l3-23.49h37.81v-12.81h-49.02l-6.14,49.57,11.19,4.41.48-.78c4.11-6.71,9.77-10.11,16.83-10.11,10.13,0,17.21,8.13,17.21,19.77s-6.76,19.9-17.21,19.9c-11.17,0-17.17-7.03-18.16-14l-.13-.94h-13.45l.11,1.19c1.19,12.66,11.59,26.29,31.63,26.29,15.72,0,31.64-11.14,31.64-32.44,0-18.42-12.56-32.31-29.22-32.31Z"/>
      <path class="cls-1" d="M415.6,32.46h-31.37v93.69h31.37c27.48,0,44.55-18,44.55-46.98s-17.07-46.71-44.55-46.71ZM415.6,113.47h-17.35V45.14h17.35c13.74,0,30.13,5.9,30.13,34.03,0,22.12-10.7,34.3-30.13,34.3Z"/>
      <path class="cls-1" d="M499.45,32.46l-34.31,93.69h14.18l8.61-24.36h35.73l8.61,24.36h14.43l-33.62-93.69h-13.64ZM506.06,50.15l2.14,7.31,11.07,31.65h-26.79l11.32-31.64c.83-2.28,1.65-5.1,2.26-7.32Z"/>
      <path class="cls-1" d="M624.08,126.15l8.61-24.36h35.73l8.61,24.36h14.44l-33.62-93.69h-13.64l-34.31,93.69h14.18ZM650.81,50.15l2.14,7.31,11.06,31.65h-26.79l11.32-31.64c.83-2.28,1.65-5.09,2.27-7.32Z"/>
      <polygon class="cls-1" points="572.02 126.15 586.04 126.15 586.04 45.27 613.63 45.27 613.63 32.46 544.43 32.46 544.43 45.27 572.02 45.27 572.02 126.15"/>
      <g>
        <g>
          <path class="cls-1" d="M0,0v282.71h282.71V0H0ZM146.32,185.49c-17.63,0-33.63-7.1-45.33-18.56v55.17h23.02v23.02h-23.02v-23.02h-23.03V55.23h23.03v19.13c11.7-11.46,27.69-18.56,45.33-18.56,35.75,0,64.85,29.09,64.85,64.85s-29.09,64.84-64.85,64.84Z"/>
          <path class="cls-1" d="M146.32,78.83c-23.06,0-41.82,18.76-41.82,41.82s18.76,41.82,41.82,41.82,41.82-18.76,41.82-41.82-18.76-41.82-41.82-41.82Z"/>
        </g>
        <g>
          <path class="cls-1" d="M0,0v282.71h282.71V0H0ZM146.32,185.49c-17.63,0-33.63-7.1-45.33-18.56v55.17h23.02v23.02h-23.02v-23.02h-23.03V55.23h23.03v19.13c11.7-11.46,27.69-18.56,45.33-18.56,35.75,0,64.85,29.09,64.85,64.85s-29.09,64.84-64.85,64.84Z"/>
          <path class="cls-1" d="M146.32,78.83c-23.06,0-41.82,18.76-41.82,41.82s18.76,41.82,41.82,41.82,41.82-18.76,41.82-41.82-18.76-41.82-41.82-41.82Z"/>
        </g>
      </g>
    </g>
  </g>
</svg>