<?xml version="1.0" encoding="UTF-8"?>
<svg id="_レイヤー_2" data-name="レイヤー 2" xmlns="http://www.w3.org/2000/svg" viewBox="0 0 108.78 108.78">
  <defs>
    <style>
      .cls-1 {
        fill: #0a7463;
      }

      .cls-2 {
        fill: #fff;
      }
    </style>
  </defs>
  <g id="A_別レイアウト用" data-name="A 別レイアウト用">
    <g>
      <rect class="cls-2" width="108.78" height="108.78"/>
      <path class="cls-1" d="M0,0v108.78h108.78V0H0ZM56.3,71.37c-6.78,0-12.94-2.73-17.44-7.14v21.23h8.86v8.86h-8.86v-8.86h-8.86V21.25h8.86v7.36c4.5-4.41,10.66-7.14,17.44-7.14,13.76,0,24.95,11.19,24.95,24.95s-11.19,24.95-24.95,24.95Z"/>
      <path class="cls-1" d="M56.3,30.33c-8.87,0-16.09,7.22-16.09,16.09s7.22,16.09,16.09,16.09,16.09-7.22,16.09-16.09-7.22-16.09-16.09-16.09Z"/>
    </g>
  </g>
</svg>